HIERARCHY
ROOT Hips
{
	OFFSET	0.00	0.00	0.00
	CHANNELS 6 Xposition Yposition Zposition Zrotation Xrotation Yrotation
	JOINT LeftUpLeg
	{
		OFFSET	 0.126116	-0.014019	-0.065224
		CHANNELS 3 Zrotation Xrotation Yrotation
		JOINT LeftLeg
		{
			OFFSET	 0.000000	 0.000000	 0.569914
			CHANNELS 3 Zrotation Xrotation Yrotation
			JOINT LeftFoot
			{
				OFFSET	 0.000000	 0.000000	 0.544423
				CHANNELS 3 Zrotation Xrotation Yrotation
				JOINT LeftToeBase
				{
					OFFSET	 0.000000	 0.000000	 0.207117
					CHANNELS 3 Zrotation Xrotation Yrotation
					End Site
					{
						OFFSET	 0.000000	 0.000000	 0.207117
					}
				}
			}
		}
	}
	JOINT RightUpLeg
	{
		OFFSET	-0.124023	-0.008373	-0.065224
		CHANNELS 3 Zrotation Xrotation Yrotation
		JOINT RightLeg
		{
			OFFSET	 0.000000	 0.000000	 0.570047
			CHANNELS 3 Zrotation Xrotation Yrotation
			JOINT RightFoot
			{
				OFFSET	 0.000000	 0.000000	 0.544354
				CHANNELS 3 Zrotation Xrotation Yrotation
				JOINT RightToeBase
				{
					OFFSET	 0.000000	 0.000000	 0.207540
					CHANNELS 3 Zrotation Xrotation Yrotation
					End Site
					{
						OFFSET	 0.000000	 0.000000	 0.207540
					}
				}
			}
		}
	}
	JOINT Spine
	{
		OFFSET	 0.000184	-0.007763	 0.117403
		CHANNELS 3 Zrotation Xrotation Yrotation
		JOINT Spine1
		{
			OFFSET	 0.000000	 0.000000	 0.137269
			CHANNELS 3 Zrotation Xrotation Yrotation
			JOINT Spine2
			{
				OFFSET	 0.000000	 0.000000	 0.156879
				CHANNELS 3 Zrotation Xrotation Yrotation
				JOINT LeftShoulder
				{
					OFFSET	 0.080501	-0.002496	 0.160144
					CHANNELS 3 Zrotation Xrotation Yrotation
					JOINT LeftArm
					{
						OFFSET	 0.000000	 0.000000	 0.164363
						CHANNELS 3 Zrotation Xrotation Yrotation
						JOINT LeftForeArm
						{
							OFFSET	 0.000000	 0.000000	 0.364576
							CHANNELS 3 Zrotation Xrotation Yrotation
							JOINT LeftHand
							{
								OFFSET	 0.000000	 0.000000	 0.360812
								CHANNELS 3 Zrotation Xrotation Yrotation
								JOINT LeftHandIndex1
								{
									OFFSET	 0.000000	 0.000000	 0.086006
									CHANNELS 3 Zrotation Xrotation Yrotation
									JOINT LeftHandIndex2
									{
										OFFSET	 0.000000	 0.000000	 0.047236
										CHANNELS 3 Zrotation Xrotation Yrotation
										JOINT LeftHandIndex3
										{
											OFFSET	-0.004284	-0.000551	 0.038166
											CHANNELS 3 Zrotation Xrotation Yrotation
											End Site
											{
												OFFSET	-0.004284	-0.000551	 0.038166
											}
										}
									}
								}
							}
						}
					}
				}
				JOINT Neck
				{
					OFFSET	 0.000000	 0.000000	 0.176489
					CHANNELS 3 Zrotation Xrotation Yrotation
					JOINT Head
					{
						OFFSET	 0.000000	-0.001747	 0.077940
						CHANNELS 3 Zrotation Xrotation Yrotation
						End Site
						{
							OFFSET	 0.000000	-0.001747	 0.077940
						}
					}
				}
				JOINT RightShoulder
				{
					OFFSET	-0.080363	 0.000306	 0.159706
					CHANNELS 3 Zrotation Xrotation Yrotation
					JOINT RightArm
					{
						OFFSET	 0.000000	 0.000000	 0.164196
						CHANNELS 3 Zrotation Xrotation Yrotation
						JOINT RightForeArm
						{
							OFFSET	 0.000000	 0.000000	 0.365611
							CHANNELS 3 Zrotation Xrotation Yrotation
							JOINT RightHand
							{
								OFFSET	 0.000000	 0.000000	 0.360648
								CHANNELS 3 Zrotation Xrotation Yrotation
								JOINT RightHandIndex1
								{
									OFFSET	 0.000000	 0.000000	 0.069977
									CHANNELS 3 Zrotation Xrotation Yrotation
									JOINT RightHandIndex2
									{
										OFFSET	 0.000000	 0.000000	 0.052305
										CHANNELS 3 Zrotation Xrotation Yrotation
										JOINT RightHandIndex3
										{
											OFFSET	 0.009002	-0.000782	 0.042196
											CHANNELS 3 Zrotation Xrotation Yrotation
											End Site
											{
												OFFSET	 0.009002	-0.000782	 0.042196
											}
										}
									}
								}
							}
						}
					}
				}
			}
		}
	}
}
MOTION
Frames:    13
Frame Time: 0.03333334
 0.114345	 6.551590	 1.037519	-0.270421	 4.196433	-1.218159	 9.143801	 19.140160	-176.415300	-5.413047	-11.624290	 1.537746	-4.321332	 88.667490	 7.784042	-2.258039	 43.162250	-0.363913	 4.787707	-45.480180	-179.279100	 0.124859	-42.073460	 3.957741	-175.728400	 85.381580	-179.170800	 2.378670	 29.657250	 0.027679	-9.839720	 3.323344	 2.800993	-15.416840	-2.394495	 0.123483	-17.885470	-5.065714	-2.740525	-91.776180	 78.527420	-180.000000	 43.302500	 62.615430	-58.562820	-6.243985	-4.575638	-25.557170	 5.364055	-2.126072	-5.360029	-3.812334	 37.924440	-2.927599	-2.450526	 36.184240	 0.754587	-1.378229	 35.397820	-2.634230	-0.365595	 5.177531	-2.298468	-4.838797	-23.493730	-4.807136	 89.782120	 78.203870	 180.000000	-29.779930	 73.444480	 32.961650	 3.851478	-6.420315	 19.260580	-14.557380	-3.289705	 9.534096	 6.437017	 35.671460	-0.771858	 2.830251	 35.756010	-7.813440	-2.350882	 35.473990	 5.254307
 0.113120	 6.513807	 1.035450	 0.339333	 4.378040	-1.386016	 8.779123	 20.597350	-176.779300	-4.854400	-11.621810	 1.556777	 1.576514	 87.683540	 2.004753	-2.219725	 45.672290	-0.439703	 5.189683	-44.861410	-178.699900	 0.693126	-42.527680	 4.579713	-175.563100	 86.762570	-178.835900	 2.377707	 29.846730	 0.031857	-10.033550	 3.217983	 2.588440	-15.513170	-2.349538	-0.059891	-17.858510	-4.873322	-2.763480	-91.776180	 78.527380	-180.000000	 44.399830	 63.439570	-59.409650	-6.198223	-4.534204	-23.854970	 5.810249	-2.146669	-5.353693	-3.812334	 37.924440	-2.927599	-2.450526	 36.184240	 0.754587	-1.378229	 35.397820	-2.634230	-0.508796	 5.153731	-2.250778	-4.913660	-23.394310	-4.695688	 89.782090	 78.203830	-180.000000	-28.711360	 73.899430	 31.445270	 3.932618	-6.343832	 18.721450	-14.788280	-3.300186	 9.525678	 6.437017	 35.671460	-0.771858	 2.830251	 35.756010	-7.813440	-2.350882	 35.473990	 5.254307
 0.109745	 6.445171	 1.034862	 1.095536	 4.481536	-1.456211	 8.448661	 23.084350	-177.859400	-3.754764	-11.611970	 1.629306	 4.829442	 84.040730	-0.729164	-2.120772	 50.721160	-0.612094	 4.869967	-43.369670	-178.734000	 4.200704	-44.696280	 7.195294	 7.177139	 89.411160	 0.380133	 2.374484	 30.456150	 0.045374	-10.373170	 3.035615	 1.837916	-15.551340	-2.432530	-0.388332	-17.615340	-4.754631	-2.839929	-91.776170	 78.527420	-180.000000	 45.324420	 65.613330	-59.047820	-6.651443	-4.423782	-21.117410	 6.566541	-2.191492	-5.338533	-3.812334	 37.924440	-2.927599	-2.450526	 36.184240	 0.754587	-1.378229	 35.397820	-2.634230	-0.744277	 4.849865	-2.098304	-4.987790	-22.822720	-4.310553	 89.782120	 78.203870	 180.000000	-26.557030	 74.642980	 28.474610	 4.189108	-6.233598	 18.019950	-15.081850	-3.314270	 9.514301	 6.437017	 35.671460	-0.771858	 2.830251	 35.756010	-7.813440	-2.350882	 35.473990	 5.254307
 0.104690	 6.366182	 1.039701	 1.353831	 4.333870	-1.319320	 8.725088	 25.697240	-179.219100	-3.122242	-11.601350	 1.703884	 4.685495	 75.949840	 0.306243	-2.059179	 53.184090	-0.708665	 3.673805	-41.550850	-179.772400	 6.475549	-47.188100	 8.674240	 4.859645	 86.261470	 3.251200	 2.373126	 30.702770	 0.050889	-10.278340	 2.482261	 0.858561	-15.134320	-2.560212	-0.752766	-17.445230	-4.747165	-2.638232	-91.776180	 78.527400	 180.000000	 44.382050	 68.723440	-55.894460	-8.154564	-4.215472	-18.875720	 7.005310	-2.234506	-5.323096	-3.812334	 37.924440	-2.927599	-2.450526	 36.184240	 0.754587	-1.378229	 35.397820	-2.634230	-0.960856	 4.741583	-1.897828	-4.981627	-22.344380	-3.764655	 89.782140	 78.203830	 180.000000	-24.505780	 75.242290	 25.654140	 4.467083	-6.142395	 17.544400	-15.251440	-3.322770	 9.508215	 6.437017	 35.671460	-0.771858	 2.830251	 35.756010	-7.813440	-2.350882	 35.473990	 5.254307
 0.098704	 6.290938	 1.047662	 1.542348	 4.215648	-1.426732	 9.141267	 27.744120	 179.739600	-3.803699	-11.620610	 1.564760	 3.993977	 64.399030	 1.116478	-2.074280	 52.616490	-0.685554	 3.279636	-38.768120	 179.552600	 5.855072	-48.735110	 8.290831	 4.923221	 85.629060	 2.362767	 2.386252	 28.021730	-0.007922	-10.024360	 1.755513	 0.556473	-14.579610	-2.498008	-0.931519	-17.144120	-4.314476	-2.328347	-91.776180	 78.527400	 180.000000	 41.458550	 71.214970	-49.993470	-9.859459	-3.946861	-18.014410	 6.622545	-2.252117	-5.320443	-3.812334	 37.924440	-2.927599	-2.450526	 36.184240	 0.754587	-1.378229	 35.397820	-2.634230	-0.962412	 4.662208	-1.864573	-4.854710	-21.396480	-3.361127	 89.782120	 78.203870	 180.000000	-24.119540	 75.479200	 24.972900	 4.438217	-6.124975	 17.358360	-15.385260	-3.329085	 9.502409	 6.437017	 35.671460	-0.771858	 2.830251	 35.756010	-7.813440	-2.350882	 35.473990	 5.254307
 0.086733	 6.213086	 1.062055	 2.275045	 3.024712	-0.993453	 6.900880	 18.733250	 177.035700	-2.789051	-33.134140	 0.638284	 1.525011	 56.569720	 0.676225	-2.184915	 47.643550	-0.503481	 2.139236	-33.262750	 178.236100	 5.932475	-48.937110	 7.737345	 5.733026	 87.625790	 1.103670	 2.399011	 24.284500	-0.086561	-10.384800	 2.573619	 0.029508	-14.287100	-2.101875	-1.165768	-16.202330	-3.498973	-2.308336	-91.776180	 78.527400	-180.000000	 37.141250	 72.103940	-41.733950	-10.238550	-3.795814	-18.352060	 6.004297	-2.249496	-5.325193	-3.812334	 37.924440	-2.927599	-2.450526	 36.184240	 0.754587	-1.378229	 35.397820	-2.634230	-1.078442	 4.575292	-1.721452	-4.844493	-19.477580	-3.170750	 89.782140	 78.203830	 180.000000	-24.910070	 75.210040	 25.523090	 4.420807	-6.252906	 18.179850	-15.041430	-3.314525	 9.514926	 6.437017	 35.671460	-0.771858	 2.830251	 35.756010	-7.813440	-2.350882	 35.473990	 5.254307
 0.074496	 6.145845	 1.072541	 3.788615	 1.883340	 1.485430	 6.935977	 9.122806	 171.631500	-1.598463	-52.036110	-0.302111	 0.794127	 50.264200	 1.299834	-2.311583	 38.758920	-0.242844	 0.452365	-27.018920	 174.991300	 6.500768	-46.932730	 6.687175	 4.014687	 89.862950	 2.514940	 2.401608	 23.199440	-0.108791	-11.109210	 3.772880	-2.456913	-14.211550	-1.545232	-1.806265	-15.952760	-3.443889	-2.392998	-91.776180	 78.527380	-180.000000	 35.475140	 71.628530	-38.176110	-9.145604	-4.030296	-19.332050	 6.280197	-2.229521	-5.329030	-3.812334	 37.924440	-2.927599	-2.450526	 36.184240	 0.754587	-1.378229	 35.397820	-2.634230	-1.519063	 4.599867	-1.418983	-5.124737	-18.413470	-3.510936	 89.782120	 78.203870	 180.000000	-27.820680	 74.406560	 29.069810	 4.417266	-6.545035	 20.039990	-14.357570	-3.283286	 9.538989	 6.437017	 35.671460	-0.771858	 2.830251	 35.756010	-7.813440	-2.350882	 35.473990	 5.254307
 0.062653	 6.071728	 1.078699	 5.439269	 1.086562	 3.591207	 4.998803	-0.608795	 168.365500	 1.449187	-66.705710	-0.018671	 1.440873	 55.298230	 0.622538	-2.291181	 40.594560	-0.291680	-0.536881	-20.565280	 172.468400	 6.406356	-43.862410	 5.242414	-174.240500	 88.272060	-179.816700	 2.404501	 21.642850	-0.140302	-11.517920	 4.563849	-4.585810	-13.927830	-1.068806	-2.226781	-16.044610	-3.537088	-2.260763	-91.776180	 78.527400	 180.000000	 33.658700	 70.815480	-35.450710	-8.749913	-4.300822	-21.548850	 6.125724	-2.182013	-5.343078	-3.812334	 37.924440	-2.927599	-2.450526	 36.184240	 0.754587	-1.378229	 35.397820	-2.634230	-2.205311	 4.816347	-0.924785	-5.589640	-17.965440	-4.362755	 89.782120	 78.203870	 180.000000	-31.123260	 72.731440	 33.734180	 4.338264	-6.943521	 22.939240	-13.388880	-3.237430	 9.570404	 6.437017	 35.671460	-0.771858	 2.830251	 35.756010	-7.813440	-2.350882	 35.473990	 5.254307
 0.053716	 6.009646	 1.079366	 6.434168	 0.411590	 3.972852	 2.397110	-8.769361	 168.591600	 5.955784	-73.848860	 2.541107	 2.059302	 63.593150	 0.252872	-2.286069	 41.020160	-0.303324	-0.608363	-15.946170	 171.755500	 5.977654	-42.532900	 4.479300	-175.163600	 86.525090	-179.320700	 2.405992	 20.521320	-0.162739	-11.365750	 4.999656	-4.778625	-13.374330	-0.683073	-2.087128	-16.048490	-3.379342	-1.908486	-91.776180	 78.527400	 180.000000	 30.879760	 70.422810	-32.553260	-9.963223	-4.372459	-24.620150	 5.258966	-2.135980	-5.357861	-3.812334	 37.924440	-2.927599	-2.450526	 36.184240	 0.754587	-1.378229	 35.397820	-2.634230	-2.726334	 4.915291	-0.472961	-5.926910	-17.787300	-5.334493	 89.782120	 78.203870	 180.000000	-33.632900	 70.676510	 38.134870	 4.169370	-7.258767	 25.781080	-12.507650	-3.209964	 9.587592	 6.437017	 35.671460	-0.771858	 2.830251	 35.756010	-7.813440	-2.350882	 35.473990	 5.254307
 0.047007	 5.951910	 1.076483	 6.827490	 0.009135	 4.172441	 0.544347	-16.260740	 169.614700	 2.854159	-76.063800	-1.278480	 0.901683	 72.885090	-0.216250	-2.273216	 42.040760	-0.331756	-0.547535	-12.549750	 171.301300	 5.777614	-42.540340	 4.170960	-175.072800	 84.930400	-179.640100	 2.403594	 22.186380	-0.129344	-11.007890	 5.361717	-4.986938	-12.496480	-0.543245	-1.766936	-15.705630	-3.467113	-1.525577	-91.776180	 78.527400	-180.000000	 28.558940	 70.298370	-30.154620	-11.398500	-4.310166	-27.704640	 4.306992	-2.105605	-5.366446	-3.812334	 37.924440	-2.927599	-2.450526	 36.184240	 0.754587	-1.378229	 35.397820	-2.634230	-3.050711	 4.971222	-0.163424	-6.063458	-17.570100	-5.939575	 89.782090	 78.203830	-180.000000	-34.988160	 68.386420	 41.644070	 3.851630	-7.507913	 28.313180	-11.826980	-3.193008	 9.597328	 6.437017	 35.671460	-0.771858	 2.830251	 35.756010	-7.813440	-2.350882	 35.473990	 5.254307
 0.042437	 5.898592	 1.071757	 6.976766	 0.173127	 4.651090	-0.741803	-22.684630	 170.644900	-4.185558	-74.115080	-8.428238	-1.064057	 79.621800	-0.745512	-2.262922	 42.810560	-0.353720	-0.672150	-9.977378	 170.634100	 5.398976	-43.009640	 3.660808	-176.355900	 83.043560	-178.900800	 2.404900	 21.373480	-0.145708	-10.911180	 5.569533	-5.689980	-11.679890	-0.549387	-1.523194	-15.154780	-3.731960	-1.315787	-91.776180	 78.527400	-180.000000	 27.088420	 70.363590	-28.503960	-12.139910	-4.422034	-30.221560	 4.000668	-2.108280	-5.366311	-3.812334	 37.924440	-2.927599	-2.450526	 36.184240	 0.754587	-1.378229	 35.397820	-2.634230	-3.179272	 5.018734	-0.068323	-5.989851	-17.251590	-6.001387	 89.782120	 78.203870	 180.000000	-35.333470	 66.224220	 44.110050	 3.533274	-7.699011	 30.369320	-11.352510	-3.197927	 9.595591	 6.437017	 35.671460	-0.771858	 2.830251	 35.756010	-7.813440	-2.350882	 35.473990	 5.254307
 0.038304	 5.840030	 1.065926	 6.910913	 0.361510	 5.135076	-1.407818	-27.835880	 171.709600	-6.336931	-67.573250	-10.034310	-1.844862	 84.189080	-2.028335	-2.273171	 42.043700	-0.331842	-0.469242	-6.660138	 169.865700	 5.260682	-42.260410	 3.329803	-176.278000	 81.845630	-179.132200	 2.404803	 21.442010	-0.144329	-10.965100	 5.706740	-6.342916	-10.802470	-0.596040	-1.312863	-14.350040	-4.040838	-1.166907	-91.776180	 78.527400	 180.000000	 26.553380	 70.423020	-27.767030	-12.477540	-4.541215	-32.196400	 3.865888	-2.108346	-5.366552	-3.812334	 37.924440	-2.927599	-2.450526	 36.184240	 0.754587	-1.378229	 35.397820	-2.634230	-3.126977	 4.935538	-0.065951	-5.724081	-16.973990	-5.754547	 89.782110	 78.203870	 180.000000	-35.302850	 64.096850	 46.554840	 3.257634	-7.911074	 32.278390	-11.042810	-3.200037	 9.595078	 6.437017	 35.671460	-0.771858	 2.830251	 35.756010	-7.813440	-2.350882	 35.473990	 5.254307
 0.035629	 5.776164	 1.060263	 6.917478	 0.624055	 5.917893	-0.758732	-30.995780	 172.735000	-5.842752	-57.234150	-7.810063	-0.830492	 85.987750	-4.179318	-2.261181	 42.936830	-0.357369	-0.050443	-1.964700	 168.818100	 4.965645	-38.693230	 2.633610	-177.205900	 81.787090	-178.486400	 2.403713	 22.118560	-0.130715	-11.254740	 5.490639	-7.516466	-9.930066	-0.782665	-1.178278	-13.569460	-4.684577	-1.099534	-91.776180	 78.527400	 180.000000	 27.043520	 70.434870	-28.159680	-12.340980	-4.657784	-33.084430	 3.941457	-2.112270	-5.365616	-3.812334	 37.924440	-2.927599	-2.450526	 36.184240	 0.754587	-1.378229	 35.397820	-2.634230	-2.948243	 4.869468	-0.159067	-5.331405	-17.097430	-5.352890	 89.782140	 78.203830	 180.000000	-35.247940	 62.184940	 48.752140	 2.968257	-8.082259	 33.955600	-10.788180	-3.199096	 9.595952	 6.437017	 35.671460	-0.771858	 2.830251	 35.756010	-7.813440	-2.350882	 35.473990	 5.254307
